# xmcd
#
# Track frame offsets: 
#        150
#        20938
#        40513
#        64362
#        89212
#
# Disc length: 1450 seconds
#
# Revision: 0
# Processed by: cddbd v1.5.2PL0 Copyright (c) Steve Scherf et al.
# Submitted via: ExactAudioCopy v1.2
#
DISCID=4505a805
DTITLE=Mojo Mark C - Mojo Mark's Chicago Blues Party
DYEAR=2016
DGENRE=Blues
TTITLE0=Lake St. Shuffle
TTITLE1=Ruthie Baby
TTITLE2=Under the El
TTITLE3=Baby Please
TTITLE4=Gone Fishin'
EXTD=
EXTT0=
EXTT1=
EXTT2=
EXTT3=
EXTT4=
PLAYORDER=
